<?xml version="1.0" encoding="UTF-8"?>
<svg width="439px" height="402px" viewBox="0 0 439 402" version="1.1" xmlns="http://www.w3.org/2000/svg" xmlns:xlink="http://www.w3.org/1999/xlink">
    <!-- Generator: Sketch 52.3 (67297) - http://www.bohemiancoding.com/sketch -->
    <title>Untitled</title>
    <desc>Created with Sketch.</desc>
    <g id="Page-1" stroke="none" stroke-width="1" fill="none" fill-rule="evenodd">
        <g id="open-folder" fill="#000000">
            <path d="M438.543,338.267 L438.543,137.278 C438.543,119.767 432.26,104.723 419.693,92.16 C407.128,79.598 392.097,73.318 374.583,73.318 L219.266,73.318 L219.266,64.182 C219.266,46.671 212.986,31.634 200.424,19.075 C187.861,6.513 172.824,0.229 155.313,0.229 L63.953,0.229 C46.442,0.229 31.405,6.512 18.842,19.075 C6.279,31.635 -1.70530257e-13,46.672 -1.70530257e-13,64.183 L-1.70530257e-13,338.267 C-1.70530257e-13,380.391083 21.3176667,401.453125 63.953,401.453125 C102.221729,401.453125 200.121649,401.453125 374.583,401.453125 C417.223,401.453125 438.543,380.391083 438.543,338.267 Z" id="Path"></path>
        </g>
    </g>
</svg>