<svg height="511pt" viewBox="-61 1 511 511.999" width="511pt" xmlns="http://www.w3.org/2000/svg"><path d="m373.425781 0h-296.875c-8.632812 0-15.628906 6.996094-15.628906 15.625v44.796875h-44.796875c-8.628906 0-15.625 6.996094-15.625 15.625v420.324219c0 8.632812 6.996094 15.628906 15.625 15.628906h296.882812c8.628907 0 15.625-6.996094 15.625-15.628906v-44.792969h44.792969c8.632813 0 15.628907-6.996094 15.628907-15.625v-420.328125c0-8.628906-6.996094-15.625-15.628907-15.625zm-341.675781 480.746094v-389.070313h265.628906c0 11.1875.003906 363.898438.003906 389.070313zm326.050781-60.421875h-29.167969v-344.277344c0-8.628906-6.996093-15.625-15.625-15.625h-220.832031v-29.167969h265.625zm0 0"/><path d="m115.644531 234.664062c-6.316406-5.878906-16.203125-5.523437-22.082031.792969l-37.316406 40.109375c-5.582032 6-5.582032 15.289063 0 21.289063l37.316406 40.109375c5.878906 6.316406 15.765625 6.671875 22.082031.792968 6.320313-5.878906 6.675781-15.765624.796875-22.082031l-27.414062-29.464843 27.414062-29.464844c5.878906-6.316406 5.523438-16.203125-.796875-22.082032zm0 0"/><path d="m235.570312 235.457031c-5.878906-6.316406-15.765624-6.675781-22.082031-.792969-6.320312 5.878907-6.675781 15.765626-.796875 22.082032l27.414063 29.464844-27.414063 29.464843c-5.878906 6.316407-5.523437 16.203125.796875 22.082031 6.320313 5.882813 16.207031 5.519532 22.082031-.792968l37.320313-40.109375c5.582031-6 5.582031-15.289063 0-21.289063zm0 0"/><path d="m180.386719 231.082031c-8.296875-2.375-16.953125 2.417969-19.332031 10.710938l-23.015626 80.214843c-2.378906 8.296876 2.414063 16.949219 10.710938 19.332032 8.300781 2.378906 16.949219-2.421875 19.328125-10.710938l23.015625-80.214844c2.382812-8.296874-2.414062-16.949218-10.707031-19.332031zm0 0"/></svg>