<?xml version="1.0" encoding="UTF-8"?>
<svg width="537px" height="403px" viewBox="0 0 537 403" version="1.1" xmlns="http://www.w3.org/2000/svg" xmlns:xlink="http://www.w3.org/1999/xlink">
    <!-- Generator: Sketch 52.3 (67297) - http://www.bohemiancoding.com/sketch -->
    <title>Untitled</title>
    <desc>Created with Sketch.</desc>
    <g id="Page-1" stroke="none" stroke-width="1" fill="none" fill-rule="evenodd">
        <g id="open-folder" fill="#000000">
            <path d="M144.752,196.52 C164.355,187.482 183.106,182.961 200.995,182.961 L438.543,182.961 L438.543,137.278 C438.543,119.767 432.26,104.723 419.693,92.16 C407.128,79.598 392.097,73.318 374.583,73.318 L219.266,73.318 L219.266,64.182 C219.266,46.671 212.986,31.634 200.424,19.075 C187.861,6.513 172.824,0.229 155.313,0.229 L63.953,0.229 C46.442,0.229 31.405,6.512 18.842,19.075 C6.279,31.635 0,46.672 0,64.183 L0,338.267 C0,339.031 0.049,340.222 0.144,341.843 C0.238,343.458 0.288,344.65 0.288,345.409 L1.714,343.705 L97.93,230.637 C109.54,216.931 125.148,205.556 144.752,196.52 Z" id="Path"></path>
            <path d="M528.898,223.214 C523.857,220.736 518.101,219.494 511.626,219.494 L200.995,219.494 C188.433,219.494 174.776,222.875 160.027,229.634 C145.277,236.4 133.808,244.62 125.626,254.335 L29.696,367.394 C23.794,374.056 20.843,380.339 20.843,386.243 C20.843,391.951 23.366,396.045 28.409,398.515 C33.452,400.993 39.209,402.231 45.682,402.231 L356.322,402.231 C368.882,402.231 382.532,398.85 397.285,392.095 C412.035,385.339 423.499,377.106 431.684,367.394 L527.615,254.335 C533.514,247.672 536.461,241.396 536.461,235.486 C536.465,229.779 533.946,225.689 528.898,223.214 Z" id="Path"></path>
        </g>
    </g>
</svg>